<svg width="3772" height="1692" xmlns="http://www.w3.org/2000/svg" xmlns:xlink="http://www.w3.org/1999/xlink" overflow="hidden"><defs><clipPath id="clip0"><rect x="233" y="1113" width="3772" height="1692"/></clipPath><clipPath id="clip1"><rect x="238" y="1118" width="3763" height="1682"/></clipPath><clipPath id="clip2"><rect x="238" y="1118" width="3763" height="1682"/></clipPath><clipPath id="clip3"><rect x="398" y="1288" width="3556" height="1254"/></clipPath><clipPath id="clip4"><rect x="398" y="1288" width="3556" height="1254"/></clipPath><clipPath id="clip5"><rect x="398" y="1288" width="3556" height="1254"/></clipPath><clipPath id="clip6"><rect x="238" y="1118" width="3763" height="1682"/></clipPath><clipPath id="clip7"><rect x="238" y="1118" width="3763" height="1682"/></clipPath><clipPath id="clip8"><rect x="238" y="1118" width="3763" height="1682"/></clipPath><clipPath id="clip9"><rect x="238" y="1118" width="3763" height="1682"/></clipPath><clipPath id="clip10"><rect x="238" y="1118" width="3763" height="1682"/></clipPath><clipPath id="clip11"><rect x="238" y="1118" width="3763" height="1682"/></clipPath><clipPath id="clip12"><rect x="238" y="1118" width="3763" height="1682"/></clipPath><clipPath id="clip13"><rect x="238" y="1118" width="3763" height="1682"/></clipPath><clipPath id="clip14"><rect x="238" y="1118" width="3763" height="1682"/></clipPath><clipPath id="clip15"><rect x="238" y="1118" width="3763" height="1682"/></clipPath><clipPath id="clip16"><rect x="238" y="1118" width="3763" height="1682"/></clipPath><clipPath id="clip17"><rect x="238" y="1118" width="3763" height="1682"/></clipPath><clipPath id="clip18"><rect x="238" y="1118" width="3763" height="1682"/></clipPath><clipPath id="clip19"><rect x="238" y="1118" width="3763" height="1682"/></clipPath><clipPath id="clip20"><rect x="238" y="1118" width="3763" height="1682"/></clipPath><clipPath id="clip21"><rect x="238" y="1118" width="3763" height="1682"/></clipPath><clipPath id="clip22"><rect x="238" y="1118" width="3763" height="1682"/></clipPath><clipPath id="clip23"><rect x="238" y="1118" width="3763" height="1682"/></clipPath><clipPath id="clip24"><rect x="238" y="1118" width="3763" height="1682"/></clipPath><clipPath id="clip25"><rect x="238" y="1118" width="3763" height="1682"/></clipPath><clipPath id="clip26"><rect x="238" y="1118" width="3763" height="1682"/></clipPath><clipPath id="clip27"><rect x="238" y="1118" width="3763" height="1682"/></clipPath><clipPath id="clip28"><rect x="238" y="1118" width="3763" height="1682"/></clipPath><clipPath id="clip29"><rect x="238" y="1118" width="3763" height="1682"/></clipPath><clipPath id="clip30"><rect x="238" y="1118" width="3763" height="1682"/></clipPath><clipPath id="clip31"><rect x="238" y="1118" width="3763" height="1682"/></clipPath><clipPath id="clip32"><rect x="238" y="1118" width="3763" height="1682"/></clipPath></defs><g clip-path="url(#clip0)" transform="translate(-233 -1113)"><rect x="238" y="1118" width="3763" height="1682" fill="#FFFFFF" fill-opacity="1"/><g clip-path="url(#clip1)"><path d="M398.5 2330.58 3950.5 2330.58M398.5 2122.57 3950.5 2122.57M398.5 1913.56 3950.5 1913.56M398.5 1705.56 3950.5 1705.56M398.5 1496.55 3950.5 1496.55M398.5 1288.5 3950.5 1288.5" stroke="#D9D9D9" stroke-width="3.4375" stroke-linecap="butt" stroke-linejoin="round" stroke-miterlimit="10" stroke-opacity="1" fill="none" fill-rule="nonzero"/></g><g clip-path="url(#clip2)"><path d="M398.5 2538.5 3950.5 2538.5" stroke="#D9D9D9" stroke-width="3.4375" stroke-linecap="butt" stroke-linejoin="round" stroke-miterlimit="10" stroke-opacity="1" fill="none" fill-rule="evenodd"/></g><g clip-path="url(#clip3)"><path d="M547 1749 843.028 1782.06 1139.04 1965.06 1435.05 1974.06 1731.06 2018.07 2027.07 2070.07 2323.08 2330.08 2619.09 2255.07 2915.1 1844.06 3211.11 1844.06 3507.11 2539 3803 2409.08" stroke="#4472C4" stroke-width="10.3125" stroke-linecap="round" stroke-linejoin="round" stroke-miterlimit="10" stroke-opacity="1" fill="none" fill-rule="nonzero"/></g><g clip-path="url(#clip4)"><path d="M547 2287 843.028 2254.07 1139.04 2070.07 1435.05 2061.07 1731.06 2018.07 2027.07 1966.06 2323.08 1705.06 2619.09 1781.06 2915.1 2192.07 3211.11 2192.07 3507.11 1497 3803 1627.05" stroke="#ED7D31" stroke-width="10.3125" stroke-linecap="round" stroke-linejoin="round" stroke-miterlimit="10" stroke-opacity="1" fill="none" fill-rule="nonzero"/></g><g clip-path="url(#clip5)"><path d="M547 2539 843.028 2539 1139.04 2539 1435.05 2539 1731.06 2539 2027.07 2539 2323.08 2539 2619.09 2539 2915.1 2539 3211.11 2539 3507.11 2539 3803 2539" stroke="#A5A5A5" stroke-width="10.3125" stroke-linecap="round" stroke-linejoin="round" stroke-miterlimit="10" stroke-opacity="1" fill="none" fill-rule="nonzero"/></g><g clip-path="url(#clip6)"><text fill="#595959" fill-opacity="1" font-family="Calibri,Calibri_MSFontService,sans-serif" font-style="normal" font-variant="normal" font-weight="400" font-stretch="normal" font-size="41" text-anchor="start" direction="ltr" writing-mode="lr-tb" unicode-bidi="normal" text-decoration="none" transform="matrix(1 0 0 1 309.925 2550)">0%</text></g><g clip-path="url(#clip7)"><text fill="#595959" fill-opacity="1" font-family="Calibri,Calibri_MSFontService,sans-serif" font-style="normal" font-variant="normal" font-weight="400" font-stretch="normal" font-size="41" text-anchor="start" direction="ltr" writing-mode="lr-tb" unicode-bidi="normal" text-decoration="none" transform="matrix(1 0 0 1 289.025 2341)">20%</text></g><g clip-path="url(#clip8)"><text fill="#595959" fill-opacity="1" font-family="Calibri,Calibri_MSFontService,sans-serif" font-style="normal" font-variant="normal" font-weight="400" font-stretch="normal" font-size="41" text-anchor="start" direction="ltr" writing-mode="lr-tb" unicode-bidi="normal" text-decoration="none" transform="matrix(1 0 0 1 289.025 2133)">40%</text></g><g clip-path="url(#clip9)"><text fill="#595959" fill-opacity="1" font-family="Calibri,Calibri_MSFontService,sans-serif" font-style="normal" font-variant="normal" font-weight="400" font-stretch="normal" font-size="41" text-anchor="start" direction="ltr" writing-mode="lr-tb" unicode-bidi="normal" text-decoration="none" transform="matrix(1 0 0 1 289.025 1924)">60%</text></g><g clip-path="url(#clip10)"><text fill="#595959" fill-opacity="1" font-family="Calibri,Calibri_MSFontService,sans-serif" font-style="normal" font-variant="normal" font-weight="400" font-stretch="normal" font-size="41" text-anchor="start" direction="ltr" writing-mode="lr-tb" unicode-bidi="normal" text-decoration="none" transform="matrix(1 0 0 1 289.025 1716)">80%</text></g><g clip-path="url(#clip11)"><text fill="#595959" fill-opacity="1" font-family="Calibri,Calibri_MSFontService,sans-serif" font-style="normal" font-variant="normal" font-weight="400" font-stretch="normal" font-size="41" text-anchor="start" direction="ltr" writing-mode="lr-tb" unicode-bidi="normal" text-decoration="none" transform="matrix(1 0 0 1 268.125 1507)">100%</text></g><g clip-path="url(#clip12)"><text fill="#595959" fill-opacity="1" font-family="Calibri,Calibri_MSFontService,sans-serif" font-style="normal" font-variant="normal" font-weight="400" font-stretch="normal" font-size="41" text-anchor="start" direction="ltr" writing-mode="lr-tb" unicode-bidi="normal" text-decoration="none" transform="matrix(1 0 0 1 268.125 1299)">120%</text></g><g clip-path="url(#clip13)"><text fill="#595959" fill-opacity="1" font-family="Calibri,Calibri_MSFontService,sans-serif" font-style="normal" font-variant="normal" font-weight="400" font-stretch="normal" font-size="41" text-anchor="start" direction="ltr" writing-mode="lr-tb" unicode-bidi="normal" text-decoration="none" transform="matrix(1 0 0 1 413.626 2604)">Less Than 1,000</text></g><g clip-path="url(#clip14)"><text fill="#595959" fill-opacity="1" font-family="Calibri,Calibri_MSFontService,sans-serif" font-style="normal" font-variant="normal" font-weight="400" font-stretch="normal" font-size="41" text-anchor="start" direction="ltr" writing-mode="lr-tb" unicode-bidi="normal" text-decoration="none" transform="matrix(1 0 0 1 721.6 2604)">1,000 to 4,999</text></g><g clip-path="url(#clip15)"><text fill="#595959" fill-opacity="1" font-family="Calibri,Calibri_MSFontService,sans-serif" font-style="normal" font-variant="normal" font-weight="400" font-stretch="normal" font-size="41" text-anchor="start" direction="ltr" writing-mode="lr-tb" unicode-bidi="normal" text-decoration="none" transform="matrix(1 0 0 1 1017.62 2604)">5,000 to 9,999</text></g><g clip-path="url(#clip16)"><text fill="#595959" fill-opacity="1" font-family="Calibri,Calibri_MSFontService,sans-serif" font-style="normal" font-variant="normal" font-weight="400" font-stretch="normal" font-size="41" text-anchor="start" direction="ltr" writing-mode="lr-tb" unicode-bidi="normal" text-decoration="none" transform="matrix(1 0 0 1 1292.74 2604)">10,000 to 14,999</text></g><g clip-path="url(#clip17)"><text fill="#595959" fill-opacity="1" font-family="Calibri,Calibri_MSFontService,sans-serif" font-style="normal" font-variant="normal" font-weight="400" font-stretch="normal" font-size="41" text-anchor="start" direction="ltr" writing-mode="lr-tb" unicode-bidi="normal" text-decoration="none" transform="matrix(1 0 0 1 1588.77 2604)">15,000 to 19,999</text></g><g clip-path="url(#clip18)"><text fill="#595959" fill-opacity="1" font-family="Calibri,Calibri_MSFontService,sans-serif" font-style="normal" font-variant="normal" font-weight="400" font-stretch="normal" font-size="41" text-anchor="start" direction="ltr" writing-mode="lr-tb" unicode-bidi="normal" text-decoration="none" transform="matrix(1 0 0 1 1884.79 2604)">20,000 to 24,999</text></g><g clip-path="url(#clip19)"><text fill="#595959" fill-opacity="1" font-family="Calibri,Calibri_MSFontService,sans-serif" font-style="normal" font-variant="normal" font-weight="400" font-stretch="normal" font-size="41" text-anchor="start" direction="ltr" writing-mode="lr-tb" unicode-bidi="normal" text-decoration="none" transform="matrix(1 0 0 1 2180.81 2604)">25,000 to 29,999</text></g><g clip-path="url(#clip20)"><text fill="#595959" fill-opacity="1" font-family="Calibri,Calibri_MSFontService,sans-serif" font-style="normal" font-variant="normal" font-weight="400" font-stretch="normal" font-size="41" text-anchor="start" direction="ltr" writing-mode="lr-tb" unicode-bidi="normal" text-decoration="none" transform="matrix(1 0 0 1 2476.83 2604)">30,000 to 34,999</text></g><g clip-path="url(#clip21)"><text fill="#595959" fill-opacity="1" font-family="Calibri,Calibri_MSFontService,sans-serif" font-style="normal" font-variant="normal" font-weight="400" font-stretch="normal" font-size="41" text-anchor="start" direction="ltr" writing-mode="lr-tb" unicode-bidi="normal" text-decoration="none" transform="matrix(1 0 0 1 2772.86 2604)">35,000 to 39,999</text></g><g clip-path="url(#clip22)"><text fill="#595959" fill-opacity="1" font-family="Calibri,Calibri_MSFontService,sans-serif" font-style="normal" font-variant="normal" font-weight="400" font-stretch="normal" font-size="41" text-anchor="start" direction="ltr" writing-mode="lr-tb" unicode-bidi="normal" text-decoration="none" transform="matrix(1 0 0 1 3068.88 2604)">40,000 to 44,999</text></g><g clip-path="url(#clip23)"><text fill="#595959" fill-opacity="1" font-family="Calibri,Calibri_MSFontService,sans-serif" font-style="normal" font-variant="normal" font-weight="400" font-stretch="normal" font-size="41" text-anchor="start" direction="ltr" writing-mode="lr-tb" unicode-bidi="normal" text-decoration="none" transform="matrix(1 0 0 1 3364.9 2604)">45,000 to 49,999</text></g><g clip-path="url(#clip24)"><text fill="#595959" fill-opacity="1" font-family="Calibri,Calibri_MSFontService,sans-serif" font-style="normal" font-variant="normal" font-weight="400" font-stretch="normal" font-size="41" text-anchor="start" direction="ltr" writing-mode="lr-tb" unicode-bidi="normal" text-decoration="none" transform="matrix(1 0 0 1 3694.96 2604)">Greater than</text></g><g clip-path="url(#clip25)"><text fill="#595959" fill-opacity="1" font-family="Calibri,Calibri_MSFontService,sans-serif" font-style="normal" font-variant="normal" font-weight="400" font-stretch="normal" font-size="41" text-anchor="start" direction="ltr" writing-mode="lr-tb" unicode-bidi="normal" text-decoration="none" transform="matrix(1 0 0 1 3745.43 2654)">50,000</text></g><g clip-path="url(#clip26)"><text fill="#595959" fill-opacity="1" font-family="Calibri,Calibri_MSFontService,sans-serif" font-style="normal" font-variant="normal" font-weight="400" font-stretch="normal" font-size="64" text-anchor="start" direction="ltr" writing-mode="lr-tb" unicode-bidi="normal" text-decoration="none" transform="matrix(1 0 0 1 1793.35 1214)">Outcomes Based on Goal</text></g><g clip-path="url(#clip27)"><path d="M1391 2734 1479 2734" stroke="#4472C4" stroke-width="10.3125" stroke-linecap="round" stroke-linejoin="round" stroke-miterlimit="10" stroke-opacity="1" fill="none" fill-rule="evenodd"/></g><g clip-path="url(#clip28)"><text fill="#595959" fill-opacity="1" font-family="Calibri,Calibri_MSFontService,sans-serif" font-style="normal" font-variant="normal" font-weight="400" font-stretch="normal" font-size="41" text-anchor="start" direction="ltr" writing-mode="lr-tb" unicode-bidi="normal" text-decoration="none" transform="matrix(1 0 0 1 1488.37 2745)">Percentage Successful</text></g><g clip-path="url(#clip29)"><path d="M1939 2734 2027 2734" stroke="#ED7D31" stroke-width="10.3125" stroke-linecap="round" stroke-linejoin="round" stroke-miterlimit="10" stroke-opacity="1" fill="none" fill-rule="evenodd"/></g><g clip-path="url(#clip30)"><text fill="#595959" fill-opacity="1" font-family="Calibri,Calibri_MSFontService,sans-serif" font-style="normal" font-variant="normal" font-weight="400" font-stretch="normal" font-size="41" text-anchor="start" direction="ltr" writing-mode="lr-tb" unicode-bidi="normal" text-decoration="none" transform="matrix(1 0 0 1 2036.69 2745)">Percentage Failed</text></g><g clip-path="url(#clip31)"><path d="M2416 2734 2504 2734" stroke="#A5A5A5" stroke-width="10.3125" stroke-linecap="round" stroke-linejoin="round" stroke-miterlimit="10" stroke-opacity="1" fill="none" fill-rule="evenodd"/></g><g clip-path="url(#clip32)"><text fill="#595959" fill-opacity="1" font-family="Calibri,Calibri_MSFontService,sans-serif" font-style="normal" font-variant="normal" font-weight="400" font-stretch="normal" font-size="41" text-anchor="start" direction="ltr" writing-mode="lr-tb" unicode-bidi="normal" text-decoration="none" transform="matrix(1 0 0 1 2512.84 2745)">Percentage Canceled</text></g><rect x="238.5" y="1118.5" width="3763" height="1682" stroke="#D9D9D9" stroke-width="3.4375" stroke-linecap="butt" stroke-linejoin="round" stroke-miterlimit="10" stroke-opacity="1" fill="none"/></g></svg>